# xmcd CD database file
#
# Track frame offsets:
#	182
#	14617
#	26592
#	41600
#	54490
#	69300
#	83462
#	97300
#	110652
#	124422
#	139297
#	153210
#	166550
#	178967
#	192807
#	206650
#	221085
#	236105
#	252067
#	264117
#	277322
#	292142
#	305702
#
# Disc length: 4247 seconds
#
# Revision: 0
# Processed by: cddbd v1.5.2PL0 Copyright (c) Steve Scherf et al.
# Submitted via: CDex 1.51
#
DISCID=5d109517
DTITLE=Louis Armstrong - Hotter Than That
DYEAR=1995
DGENRE=Jazz
TTITLE0=I'm A Ding Dong Daddy (From Dumas)
TTITLE1=Mahogany Hall Stomp
TTITLE2=West End Blues
TTITLE3=Muggles
TTITLE4=Knockin' A Jug
TTITLE5=Tell Me Dreamy Eyes
TTITLE6=I Miss My Swiss
TTITLE7=St Louis Blues
TTITLE8=Melancholy Blues
TTITLE9=Cornet Chop Suey
TTITLE10=Skid-Dat-De-Dat
TTITLE11=Potato Head Blues
TTITLE12=Blue Yodel n. 9 (Standin' On The Corner)
TTITLE13=Hotter Than That
TTITLE14=(What Did I Do To Be So) Black And Blue
TTITLE15=Tiger Rag
TTITLE16=Body And Soul
TTITLE17=Basin Street Blues
TTITLE18=Jeepers Creepers
TTITLE19=I'm Putting All My Eggs In One Basket
TTITLE20=I'm Confessin' That I Love You
TTITLE21=Snake Rag (Bonus Track)
TTITLE22=High Fever (Bonus Track)
EXTD=YEAR: 1995
EXTT0=
EXTT1=
EXTT2=
EXTT3=
EXTT4=
EXTT5=
EXTT6=
EXTT7=
EXTT8=
EXTT9=
EXTT10=
EXTT11=
EXTT12=
EXTT13=
EXTT14=
EXTT15=
EXTT16=
EXTT17=
EXTT18=
EXTT19=
EXTT20=
EXTT21=
EXTT22=
PLAYORDER=
